# xmcd
#
# Track frame offsets: 
#        150
#        18341
#        32580
#        53551
#        94236
#        121635
#        140746
#        155877
#        190136
#        243395
#        264421
#        298005
#
# Disc length: 4368 seconds
#
# Revision: 2
# Processed by: cddbd v1.5.2PL0 Copyright (c) Steve Scherf et al.
# Submitted via: ExactAudioCopy v1.3
#
DISCID=a4110e0c
DTITLE=Jane's Addiction - Live 2011.06.25 Terminal 5, NY. USA (Live In
DTITLE=NYC)
DYEAR=2013
DGENRE=Alt. Rock
TTITLE0=Whores
TTITLE1=Ain't No Right
TTITLE2=Just Because
TTITLE3=Ted, Just Admit It...
TTITLE4=Been Caught Stealing
TTITLE5=Irrestible Force (Met The Immovable Object)
TTITLE6=Up The Beach
TTITLE7=Ocean Size
TTITLE8=Three Days
TTITLE9=Mountain Song
TTITLE10=Stop!
TTITLE11=Jane Says
EXTD=
EXTT0=
EXTT1=
EXTT2=
EXTT3=
EXTT4=
EXTT5=
EXTT6=
EXTT7=
EXTT8=
EXTT9=
EXTT10=
EXTT11=
PLAYORDER=
